Coordinates
version=1
nRows=41
nColumns=38
inDegrees=no

Units are S.I. units (second, meters, Newtons, ...)
If the header above contains a line with 'inDegrees', this indicates whether rotational values are in degrees (yes) or radians (no).

endheader
time	pelvis_tilt	pelvis_list	pelvis_rotation	pelvis_tx	pelvis_ty	pelvis_tz	hip_flexion_r	hip_adduction_r	hip_rotation_r	knee_angle_r	ankle_angle_r	subtalar_angle_r	mtp_angle_r	hip_flexion_l	hip_adduction_l	hip_rotation_l	knee_angle_l	ankle_angle_l	subtalar_angle_l	mtp_angle_l	lumbar_extension	lumbar_bending	lumbar_rotation	arm_flex_r	arm_add_r	arm_rot_r	elbow_flex_r	pro_sup_r	wrist_flex_r	wrist_dev_r	arm_flex_l	arm_add_l	arm_rot_l	elbow_flex_l	pro_sup_l	wrist_flex_l	wrist_dev_l
1.98	3.09945	1.46199	-1.41645	0.624066	1.4848	0.933906	0.393586	-0.108781	-0.184867	0.467366	0.126829	0	0	-0.27711	0.0709525	-0.0469327	0.00889899	0.15486	0	0	-0.261742	-0.10901	-0.203215	-0.0970107	-0.203998	0.14659	0.504779	0.985295	0	0	-0.0506536	-0.489832	0.170576	0.780911	1.279	0	0
1.99	3.11216	1.46564	-1.43051	0.624792	1.49322	0.932308	0.390607	-0.104884	-0.194179	0.407861	0.127296	0	0	-0.286061	0.0716198	-0.0463133	0.0045737	0.160902	0	0	-0.259829	-0.111665	-0.200317	-0.097411	-0.202446	0.146186	0.504173	0.986652	0	0	-0.042651	-0.491451	0.173379	0.784353	1.278	0	0
2	3.12711	1.46933	-1.44719	0.625574	1.50176	0.930657	0.386316	-0.100027	-0.200616	0.348916	0.12652	0	0	-0.294676	0.0724569	-0.0467077	0.00117628	0.167332	0	0	-0.257471	-0.114467	-0.197434	-0.0970931	-0.20118	0.147254	0.502455	0.987524	0	0	-0.0353444	-0.492527	0.17546	0.786941	1.27732	0	0
2.01	2.98632	1.45999	-1.31208	0.625704	1.50821	0.931696	0.393603	-0.0832236	-0.21502	0.338011	0.12496	0	0	-0.309157	0.0560776	-0.0559004	0.00226992	0.173526	0	0	-0.271782	-0.0945417	-0.187718	-0.0862016	-0.204296	0.149088	0.497019	0.987857	0	0	-0.0156458	-0.483415	0.17619	0.77658	1.27733	0	0
2.02	2.99589	1.4637	-1.32402	0.626454	1.51697	0.929895	0.389921	-0.0779601	-0.218745	0.289362	0.126533	0	0	-0.317072	0.0571308	-0.0593134	0.00126261	0.181874	0	0	-0.269189	-0.0967779	-0.184509	-0.0854646	-0.203321	0.1492	0.494818	0.988679	0	0	-0.0083754	-0.482169	0.175586	0.775678	1.2791	0	0
2.03	3.00653	1.46742	-1.33774	0.62728	1.52582	0.928027	0.383887	-0.0712172	-0.21507	0.238998	0.123327	0	0	-0.325155	0.0584549	-0.0630273	0.000118933	0.190212	0	0	-0.266193	-0.0990868	-0.181398	-0.0849019	-0.205954	0.167364	0.496286	0.95723	0	0	-0.0030301	-0.481727	0.176489	0.776875	1.27353	0	0
2.04	3.02536	1.47226	-1.35867	0.628045	1.53484	0.926009	0.381751	-0.0673654	-0.217045	0.20024	0.121825	0	0	-0.331671	0.0604374	-0.065502	0.000484726	0.197821	0	0	-0.261931	-0.102127	-0.179296	-0.0836949	-0.204782	0.165852	0.493197	0.964244	0	0	0.00175672	-0.480891	0.175877	0.777043	1.27812	0	0
2.05	3.04453	1.47599	-1.37924	0.628781	1.54408	0.924064	0.378534	-0.0636576	-0.219863	0.167929	0.119479	0	0	-0.339025	0.0616885	-0.0682099	0.00186022	0.205716	0	0	-0.258444	-0.104477	-0.177865	-0.0826327	-0.203911	0.165572	0.490317	0.969884	0	0	0.00598409	-0.479974	0.1757	0.776686	1.2812	0	0
2.06	3.06137	1.47846	-1.39692	0.629434	1.55353	0.922208	0.374282	-0.0599912	-0.223781	0.143171	0.117583	0	0	-0.347016	0.0620834	-0.0712984	0.00485674	0.214225	0	0	-0.255937	-0.105854	-0.177003	-0.0817595	-0.202934	0.164174	0.487808	0.976351	0	0	0.00961289	-0.478862	0.175922	0.775883	1.2839	0	0
2.07	3.07515	1.47993	-1.41104	0.629982	1.56316	0.920434	0.370622	-0.0569187	-0.229335	0.128942	0.116884	0	0	-0.355077	0.0616578	-0.0749673	0.0100696	0.223587	0	0	-0.25428	-0.106237	-0.176612	-0.0810953	-0.201749	0.161283	0.485718	0.98188	0	0	0.0127388	-0.47729	0.176134	0.77457	1.28618	0	0
2.08	3.05372	1.47827	-1.39021	0.630634	1.57278	0.919147	0.373669	-0.0502758	-0.266387	0.151631	0.138116	0	0	-0.364404	0.0569662	-0.0823014	0.0181401	0.234128	0	0	-0.255915	-0.102417	-0.175573	-0.0793718	-0.201123	0.159034	0.483946	0.985874	0	0	0.0163477	-0.474825	0.17613	0.772003	1.28826	0	0
2.09	3.10214	1.48066	-1.43734	0.63091	1.58303	0.917039	0.400889	-0.0691725	-0.334157	0.2196	0.170529	0	0	-0.370348	0.0592193	-0.0868747	0.0281563	0.245008	0	0	-0.252859	-0.105409	-0.177875	-0.0807095	-0.200976	0.157087	0.485095	0.989961	0	0	0.0162005	-0.473746	0.176512	0.771832	1.29021	0	0
2.1	3.12714	1.48241	-1.4586	0.630863	1.59328	0.915269	0.403673	-0.0742357	-0.351414	0.241902	0.174915	0	0	-0.374283	0.0580602	-0.0906518	0.0422476	0.256466	0	0	-0.250641	-0.104931	-0.182692	-0.0811209	-0.201691	0.15624	0.486413	0.994952	0	0	0.0157075	-0.471901	0.177059	0.770213	1.29151	0	0
2.11	3.13862	1.48264	-1.46576	0.630849	1.60371	0.913739	0.401583	-0.076219	-0.358033	0.261135	0.172112	0	0	-0.378449	0.0546874	-0.0961932	0.059086	0.268415	0	0	-0.249824	-0.10273	-0.188138	-0.0816615	-0.202594	0.155853	0.488499	0.999923	0	0	0.0144292	-0.470134	0.177918	0.768521	1.29226	0	0
2.12	-3.01919	1.48893	-1.58359	0.630482	1.61506	0.910914	0.433046	-0.103721	-0.377277	0.346977	0.200158	0	0	-0.374267	0.0599567	-0.102213	0.0831025	0.284554	0	0	-0.240365	-0.111058	-0.198539	-0.0873386	-0.202512	0.15508	0.493725	1.00721	0	0	0.00708821	-0.473038	0.185186	0.773344	1.27573	0	0
2.13	-3.11694	1.48577	-1.48256	0.630728	1.62513	0.910631	0.399089	-0.0816054	-0.366664	0.301148	0.170661	0	0	-0.380402	0.0465415	-0.109418	0.100584	0.292512	0	0	-0.244459	-0.0982875	-0.202076	-0.0841753	-0.203294	0.155365	0.492941	1.00936	0	0	0.00784736	-0.468369	0.18447	0.767057	1.2791	0	0
2.14	-3.13641	1.48498	-1.45793	0.630769	1.63605	0.909592	0.392163	-0.0781153	-0.36309	0.308638	0.159933	0	0	-0.383316	0.0387287	-0.118233	0.122006	0.301757	0	0	-0.243925	-0.0923852	-0.208613	-0.0845448	-0.203374	0.155296	0.493693	1.01191	0	0	0.00430852	-0.465467	0.183565	0.763611	1.28278	0	0
2.15	-3.12158	1.48725	-1.46616	0.63075	1.64746	0.908177	0.392396	-0.076299	-0.367797	0.312879	0.135678	0	0	-0.382152	0.0330854	-0.126794	0.146543	0.310043	0	0	-0.239242	-0.0898781	-0.217038	-0.0869288	-0.202554	0.154914	0.494699	1.0137	0	0	-0.00197192	-0.463506	0.18269	0.761484	1.28656	0	0
2.16	3.07657	1.48655	-1.37785	0.631177	1.65822	0.907836	0.383431	-0.0692331	-0.362484	0.31639	0.113007	0	0	-0.3797	0.0185385	-0.141466	0.17587	0.317853	0	0	-0.238506	-0.078084	-0.220903	-0.085399	-0.201794	0.153736	0.492981	1.01539	0	0	-0.00480147	-0.458682	0.180778	0.754973	1.29088	0	0
2.17	3.01891	1.48718	-1.31651	0.631734	1.6696	0.907225	0.377508	-0.0622273	-0.362905	0.317221	0.0841159	0	0	-0.375077	0.00548424	-0.155556	0.20793	0.324284	0	0	-0.234817	-0.0694649	-0.2254	-0.0861031	-0.20043	0.151914	0.491686	1.01736	0	0	-0.0103144	-0.454738	0.178103	0.749596	1.29654	0	0
2.18	2.99661	1.48995	-1.28984	0.632343	1.68155	0.906334	0.375562	-0.0570758	-0.369704	0.319036	0.0546297	0	0	-0.36801	-0.00492476	-0.167356	0.242541	0.327784	0	0	-0.227946	-0.0650739	-0.231106	-0.0891458	-0.198623	0.150221	0.491245	1.01926	0	0	-0.0189037	-0.452058	0.175159	0.746315	1.30307	0	0
2.19	2.89748	1.48758	-1.18931	0.633209	1.69284	0.906602	0.368432	-0.0511407	-0.369103	0.333866	0.0434697	0	0	-0.360616	-0.0230981	-0.183246	0.282573	0.328136	0	0	-0.226247	-0.0523878	-0.23261	-0.0885953	-0.197506	0.14826	0.489281	1.02083	0	0	-0.0236526	-0.446613	0.171816	0.739154	1.31006	0	0
2.2	2.86658	1.48787	-1.15571	0.634024	1.70495	0.906469	0.364547	-0.0451472	-0.360998	0.34423	0.0306865	0	0	-0.351819	-0.0359137	-0.194146	0.324189	0.323797	0	0	-0.221429	-0.0468622	-0.236203	-0.0914362	-0.195517	0.145353	0.488708	1.02275	0	0	-0.0322369	-0.443128	0.168725	0.734974	1.31742	0	0
2.21	2.79423	1.48278	-1.08293	0.635072	1.7168	0.90735	0.357285	-0.0363842	-0.360222	0.359082	0.0261525	0	0	-0.343463	-0.0549576	-0.20794	0.370565	0.313265	0	0	-0.221211	-0.0355099	-0.2366	-0.0920057	-0.194221	0.143455	0.487172	1.02467	0	0	-0.0388121	-0.438192	0.165933	0.729099	1.32421	0	0
2.22	2.69785	1.47799	-0.987716	0.636354	1.72843	0.908274	0.351788	-0.0241367	-0.357842	0.372908	0.0267215	0	0	-0.32575	-0.0793555	-0.229111	0.430665	0.300592	0	0	-0.219099	-0.0220968	-0.235496	-0.0922049	-0.1952	0.152086	0.487611	1.011	0	0	-0.0453426	-0.43181	0.159081	0.721861	1.34315	0	0
2.23	2.64286	1.47298	-0.936379	0.637771	1.74003	0.909616	0.343236	-0.0136994	-0.354525	0.383879	0.0303478	0	0	-0.310426	-0.0984015	-0.240979	0.484462	0.274696	0	0	-0.218849	-0.012042	-0.2321	-0.0917057	-0.19458	0.152701	0.48634	1.01502	0	0	-0.0519894	-0.427244	0.158206	0.717423	1.34559	0	0
2.24	2.57447	1.4701	-0.872443	0.639443	1.75142	0.910736	0.335793	-0.00197551	-0.351174	0.38969	0.0332489	0	0	-0.286042	-0.119813	-0.253645	0.547528	0.240576	0	0	-0.215476	-0.00242329	-0.228096	-0.0911883	-0.193953	0.155342	0.485097	1.01838	0	0	-0.0591639	-0.423367	0.15803	0.713643	1.34653	0	0
2.25	2.4995	1.46922	-0.802778	0.641253	1.76262	0.911599	0.329097	0.0101043	-0.346565	0.390836	0.0352455	0	0	-0.255232	-0.141244	-0.262879	0.614798	0.196594	0	0	-0.20949	0.00607253	-0.223029	-0.0910457	-0.193461	0.160705	0.483582	1.01964	0	0	-0.0662125	-0.420362	0.159924	0.711049	1.34566	0	0
2.26	2.41658	1.47323	-0.741334	0.643889	1.77288	0.911476	0.35255	0.0166211	-0.323199	0.439618	0.0485757	0	0	-0.22061	-0.154825	-0.281708	0.683001	0.145696	0	0	-0.200967	0.0103448	-0.20203	-0.0912389	-0.197875	0.171934	0.487905	1.01599	0	0	-0.0710835	-0.416586	0.165748	0.711864	1.3419	0	0
2.27	2.31937	1.46625	-0.635482	0.645042	1.78419	0.912903	0.315356	0.0337228	-0.350573	0.388704	0.0438297	0	0	-0.183418	-0.18557	-0.267408	0.751634	0.0899192	0	0	-0.194842	0.0253054	-0.209439	-0.092004	-0.199988	0.205999	0.486183	0.966155	0	0	-0.0794463	-0.419291	0.182556	0.713836	1.30343	0	0
2.28	2.27813	1.48443	-0.601082	0.646899	1.79546	0.911279	0.338138	0.0240618	-0.312667	0.417145	0.0495883	0	0	-0.138861	-0.182882	-0.259465	0.815116	0.037396	0	0	-0.176434	0.0126019	-0.204862	-0.0988553	-0.198957	0.211524	0.489496	0.961673	0	0	-0.0922837	-0.423722	0.189698	0.724297	1.29828	0	0
2.29	2.21343	1.47097	-0.543058	0.648718	1.80552	0.913159	0.293684	0.0570685	-0.300034	0.350897	0.0316515	0	0	-0.110352	-0.211266	-0.257867	0.876749	-0.0176323	0	0	-0.180402	0.0307406	-0.194563	-0.0974413	-0.197681	0.198023	0.485752	0.988346	0	0	-0.0921642	-0.418488	0.188559	0.719948	1.31712	0	0
2.3	2.17987	1.46524	-0.516746	0.650293	1.81548	0.914259	0.285879	0.0657382	-0.302174	0.358217	0.0355498	0	0	-0.0783392	-0.229172	-0.252846	0.936669	-0.0746413	0	0	-0.18127	0.0400964	-0.184758	-0.10023	-0.202927	0.214383	0.494032	0.952006	0	0	-0.0934178	-0.418997	0.203692	0.722497	1.28942	0	0
2.31	2.18127	1.46796	-0.52411	0.651712	1.82569	0.914768	0.274881	0.0737991	-0.2792	0.352888	0.0381933	0	0	-0.045313	-0.235375	-0.24463	0.99219	-0.125325	0	0	-0.179895	0.0388541	-0.177587	-0.104812	-0.204426	0.214038	0.501179	0.944697	0	0	-0.0972454	-0.420501	0.211064	0.727462	1.28419	0	0
2.32	2.20252	1.4616	-0.551232	0.652846	1.83541	0.91658	0.260003	0.0791304	-0.278963	0.359662	0.0468438	0	0	-0.0202567	-0.247964	-0.238624	1.04184	-0.163312	0	0	-0.187439	0.0453323	-0.169033	-0.105887	-0.203932	0.194982	0.503661	0.973413	0	0	-0.0966051	-0.417034	0.209763	0.725894	1.30321	0	0
2.33	2.25092	1.45807	-0.605319	0.65394	1.84526	0.918354	0.238893	0.0840983	-0.26664	0.356322	0.0547437	0	0	0.000520926	-0.253956	-0.234523	1.08338	-0.179791	0	0	-0.195655	0.0464835	-0.162237	-0.108157	-0.207681	0.201256	0.511903	0.953611	0	0	-0.0981102	-0.416696	0.214251	0.728698	1.29451	0	0
2.34	2.30048	1.45572	-0.66039	0.655047	1.85502	0.920121	0.219833	0.0874262	-0.256277	0.354194	0.0610729	0	0	0.0208454	-0.257051	-0.230453	1.12101	-0.176012	0	0	-0.203495	0.0455608	-0.155639	-0.110879	-0.208667	0.191672	0.519708	0.959117	0	0	-0.0995064	-0.416419	0.216531	0.73127	1.30077	0	0
2.35	2.27245	1.45156	-0.659608	0.656897	1.86219	0.921883	0.229872	0.0998357	-0.224311	0.385913	0.061091	0	0	0.0454018	-0.266231	-0.244571	1.16275	-0.152113	0	0	-0.212375	0.0517611	-0.126844	-0.105545	-0.215405	0.176323	0.52604	0.99293	0	0	-0.091567	-0.407053	0.214384	0.726116	1.32044	0	0
2.36	2.40425	1.45628	-0.774487	0.656927	1.87384	0.92369	0.184399	0.086963	-0.23639	0.346786	0.0711339	0	0	0.0685628	-0.25336	-0.216404	1.19668	-0.120447	0	0	-0.215718	0.0370529	-0.146394	-0.109063	-0.210052	0.175716	0.523088	0.995135	0	0	-0.102267	-0.413837	0.213115	0.73245	1.3229	0	0
2.37	2.45584	1.45869	-0.830819	0.657733	1.88297	0.925358	0.168551	0.0843362	-0.227452	0.342005	0.0755354	0	0	0.0951051	-0.248067	-0.208532	1.22953	-0.0885854	0	0	-0.219224	0.0305144	-0.143681	-0.10679	-0.212992	0.183553	0.523984	0.986015	0	0	-0.104019	-0.413251	0.214375	0.733037	1.31752	0	0
2.38	2.51141	1.46144	-0.890977	0.658469	1.89202	0.927021	0.152843	0.0806786	-0.219614	0.336587	0.079887	0	0	0.12059	-0.241238	-0.201897	1.25371	-0.0648767	0	0	-0.222355	0.0234097	-0.140927	-0.104027	-0.214748	0.185155	0.522802	0.990152	0	0	-0.104981	-0.411632	0.213363	0.732045	1.32	0	0
